<svg width="1200" height="630" viewBox="0 0 1200 630" fill="none" xmlns="http://www.w3.org/2000/svg">
  <rect width="1200" height="630" fill="#f8fafc"/>
  <rect x="50" y="50" width="1100" height="530" fill="#ffffff" rx="8" stroke="#e2e8f0" stroke-width="2"/>
  <rect x="100" y="150" width="80" height="8" rx="4" fill="#3b82f6"/>
  <rect x="100" y="170" width="60" height="8" rx="4" fill="#3b82f6" opacity="0.8"/>
  <rect x="100" y="190" width="40" height="8" rx="4" fill="#3b82f6" opacity="0.6"/>
  <rect x="1020" y="150" width="80" height="8" rx="4" fill="#3b82f6"/>
  <rect x="1040" y="170" width="60" height="8" rx="4" fill="#3b82f6" opacity="0.8"/>
  <rect x="1060" y="190" width="40" height="8" rx="4" fill="#3b82f6" opacity="0.6"/>
  <text x="600" y="250" font-family="Arial, sans-serif" font-weight="bold" font-size="70" text-anchor="middle" fill="#0f172a">Simple Blog Template</text>
  <rect x="450" y="290" width="300" height="4" rx="2" fill="#3b82f6"/>
  <text x="600" y="350" font-family="Arial, sans-serif" font-size="32" text-anchor="middle" fill="#64748b">A clean, minimal blog template built with</text>
  <text x="600" y="400" font-family="Arial, sans-serif" font-size="32" text-anchor="middle" fill="#64748b">React, TypeScript, and Tailwind CSS</text>
  <circle cx="450" cy="480" r="25" fill="#61dafb"/>
  <circle cx="520" cy="480" r="25" fill="#3178c6"/>
  <circle cx="590" cy="480" r="25" fill="#38bdf8"/>
  <circle cx="660" cy="480" r="25" fill="#8b5cf6"/>
  <circle cx="730" cy="480" r="25" fill="#22c55e"/>
</svg>
